<svg id="visual" viewBox="0 0 900 600" width="900" height="600" xmlns="http://www.w3.org/2000/svg" xmlns:xlink="http://www.w3.org/1999/xlink" version="1.1"><rect x="0" y="0" width="900" height="600" fill="#292B48"></rect><defs><linearGradient id="grad1_0" x1="33.3%" y1="0%" x2="100%" y2="100%"><stop offset="20%" stop-color="#292b48" stop-opacity="1"></stop><stop offset="80%" stop-color="#292b48" stop-opacity="1"></stop></linearGradient></defs><defs><linearGradient id="grad2_0" x1="0%" y1="0%" x2="66.7%" y2="100%"><stop offset="20%" stop-color="#292b48" stop-opacity="1"></stop><stop offset="80%" stop-color="#292b48" stop-opacity="1"></stop></linearGradient></defs><g transform="translate(900, 0)"><path d="M0 405.6C-28.7 337.7 -57.3 269.9 -106 255.9C-154.7 242 -223.4 281.9 -273.7 273.7C-323.9 265.4 -355.8 208.9 -374.7 155.2C-393.7 101.6 -399.7 50.8 -405.6 0L0 0Z" fill="#2f3252"></path></g><g transform="translate(0, 600)"><path d="M0 -405.6C41 -350.4 82 -295.1 106.4 -256.8C130.8 -218.6 138.6 -197.3 188.8 -188.8C239 -180.3 331.5 -184.6 374.7 -155.2C417.9 -125.9 411.8 -62.9 405.6 0L0 0Z" fill="#2f3252"></path></g></svg>